<?xml version="1.0" standalone="no"?>
<!DOCTYPE svg PUBLIC "-//W3C//DTD SVG 20010904//EN"
 "http://www.w3.org/TR/2001/REC-SVG-20010904/DTD/svg10.dtd">
<svg version="1.0" xmlns="http://www.w3.org/2000/svg"
 width="960.000000pt" height="1280.000000pt" viewBox="0 0 960.000000 1280.000000"
 preserveAspectRatio="xMidYMid meet">
<g transform="translate(0.000000,1280.000000) scale(0.100000,-0.100000)"
fill="#000000" stroke="none">
<path d="M5316 12420 c-347 -129 -655 -472 -866 -964 -134 -313 -227 -667
-260 -995 -38 -381 35 -987 181 -1511 29 -102 52 -197 53 -211 1 -22 -37 -57
-269 -244 -544 -440 -754 -623 -1036 -905 -230 -229 -351 -365 -486 -547 -249
-335 -417 -688 -484 -1018 -27 -138 -38 -446 -19 -593 101 -812 608 -1512
1395 -1928 629 -332 1411 -434 2173 -283 57 11 105 19 107 17 4 -4 311 -1147
329 -1228 24 -106 36 -219 38 -346 5 -581 -386 -963 -1095 -1068 -300 -45
-663 17 -824 140 -44 33 -93 101 -93 128 0 20 4 21 72 18 143 -7 319 36 472
116 396 207 464 648 149 966 -246 248 -636 324 -973 189 -265 -107 -468 -327
-536 -583 -25 -96 -23 -254 4 -353 125 -446 639 -788 1287 -858 264 -28 661
21 939 118 627 216 934 657 886 1271 -8 113 -29 205 -185 837 -97 391 -177
720 -178 733 -2 20 10 28 88 61 551 232 945 556 1145 943 106 204 151 400 151
651 -1 261 -47 460 -163 692 -262 522 -788 877 -1421 960 -126 16 -450 20
-571 6 -63 -7 -69 -6 -77 13 -11 28 -289 1122 -289 1140 0 7 50 56 111 107
788 656 1269 1526 1318 2383 21 352 -54 728 -235 1187 -223 567 -533 991 -723
989 -20 -1 -71 -14 -115 -30z m367 -1025 c168 -44 284 -155 333 -320 40 -135
14 -411 -62 -643 -38 -119 -147 -347 -220 -462 -220 -347 -528 -670 -914 -959
-105 -79 -136 -98 -142 -86 -5 8 -26 83 -47 167 -79 311 -112 596 -92 802 48
488 236 960 491 1230 121 127 243 206 400 257 97 32 169 36 253 14z m-838
-4284 c69 -277 127 -512 128 -523 2 -16 -14 -25 -88 -52 -522 -190 -948 -603
-1080 -1051 -36 -121 -45 -327 -21 -459 33 -171 109 -345 219 -496 71 -97 245
-261 361 -338 180 -121 461 -242 561 -242 54 0 95 30 95 69 0 37 -20 53 -115
91 -172 68 -332 168 -439 276 -130 131 -185 253 -193 429 -5 91 -2 125 15 195
66 266 293 525 591 675 72 36 217 92 261 100 l35 6 289 -1156 c159 -636 286
-1158 284 -1160 -7 -8 -172 -42 -284 -61 -154 -24 -552 -30 -743 -10 -649 69
-1203 314 -1558 690 -291 308 -425 656 -410 1066 10 262 66 474 192 728 220
444 588 844 1228 1335 163 125 539 398 544 394 1 -1 58 -229 128 -506z m866
-1305 c342 -46 639 -185 855 -400 152 -153 246 -315 302 -525 36 -137 35 -313
-2 -456 -88 -335 -347 -636 -711 -826 -87 -45 -125 -58 -125 -43 0 3 -128 509
-285 1125 -157 615 -285 1124 -285 1129 0 14 127 12 251 -4z"/>
</g>
</svg>
